<svg width="21" height="21" viewBox="0 0 21 21" fill="none" xmlns="http://www.w3.org/2000/svg">
<path d="M14.3786 14.5716L14.3786 14.5716L14.2286 14.7216L14.2236 14.7265L14.2236 14.7265C12.8249 16.0865 10.9501 16.8461 8.99921 16.843M14.3786 14.5716L16.5 9.34223C16.4996 5.1984 13.1428 1.84302 9 1.84302C4.85586 1.84302 1.5 5.19887 1.5 9.34302C1.5 13.4859 4.85539 16.8426 8.99921 16.843M14.3786 14.5716L14.3835 14.5666M14.3786 14.5716L14.3835 14.5666M8.99921 16.843L9 16.343V16.843C8.99974 16.843 8.99947 16.843 8.99921 16.843ZM14.3835 14.5666C15.7433 13.1681 16.5029 11.2936 16.5 9.34302L14.3835 14.5666ZM15.6409 14.6473L15.3607 14.9968L15.6775 15.3136L19.6069 19.2421L18.899 19.9499L14.9706 16.0205L14.6538 15.7037L14.3043 15.9839C12.7999 17.1898 10.9288 17.8458 9.00071 17.843H9C4.30814 17.843 0.5 14.0349 0.5 9.34302C0.5 4.65116 4.30814 0.843018 9 0.843018C13.6919 0.843018 17.5 4.65116 17.5 9.34302V9.34373C17.5027 11.2718 16.8468 13.1429 15.6409 14.6473Z" fill="black" stroke="#928A8A"/>
</svg>
