<svg width="16" height="16" viewBox="0 0 16 16" fill="none" xmlns="http://www.w3.org/2000/svg">
<path opacity="0.16" d="M12.9372 7.20872C12.9372 8.71161 12.3401 10.153 11.2774 11.2157C10.2147 12.2784 8.77338 12.8754 7.27049 12.8754C5.76759 12.8754 4.32626 12.2784 3.26355 11.2157C2.20084 10.153 1.60382 8.71161 1.60382 7.20872C1.60382 5.70583 2.20084 4.26449 3.26355 3.20178C4.32626 2.13908 5.76759 1.54205 7.27049 1.54205C8.77338 1.54205 10.2147 2.13908 11.2774 3.20178C12.3401 4.26449 12.9372 5.70583 12.9372 7.20872Z" fill="#787878"/>
<path d="M14.3538 14.292L11.2775 11.2157M11.2775 11.2157C11.8037 10.6895 12.2211 10.0648 12.5059 9.37725C12.7907 8.68972 12.9372 7.95283 12.9372 7.20865C12.9372 6.46448 12.7907 5.72759 12.5059 5.04006C12.2211 4.35253 11.8037 3.72782 11.2775 3.20161C10.7512 2.6754 10.1265 2.25798 9.43901 1.9732C8.75149 1.68842 8.0146 1.54184 7.27042 1.54184C6.52624 1.54184 5.78935 1.68842 5.10182 1.9732C4.41429 2.25798 3.78959 2.6754 3.26338 3.20161C2.20064 4.26434 1.60361 5.70572 1.60361 7.20865C1.60361 8.71158 2.20064 10.153 3.26338 11.2157C4.32611 12.2784 5.76749 12.8755 7.27042 12.8755C8.77335 12.8755 10.2147 12.2784 11.2775 11.2157Z" stroke="#787878" stroke-width="2" stroke-linecap="round" stroke-linejoin="round"/>
</svg>
