<svg width="17" height="17" viewBox="0 0 17 17" fill="none" xmlns="http://www.w3.org/2000/svg">
<path opacity="0.5" d="M16.4167 10.1567V8.41349C16.4167 6.32982 16.4167 5.2872 15.8071 4.61032C15.7512 4.54784 15.692 4.48838 15.6298 4.4322C14.9529 3.8234 13.9102 3.8234 11.8266 3.8234H11.5305C10.6177 3.8234 10.1609 3.8234 9.735 3.70228C9.50127 3.63547 9.27601 3.54196 9.06367 3.42361C8.67733 3.20907 8.35433 2.88528 7.70833 2.24007L7.27292 1.80465C7.056 1.58774 6.94833 1.48007 6.83433 1.38507C6.34403 0.978661 5.74257 0.729527 5.1085 0.670197C4.96125 0.656738 4.80767 0.656738 4.50208 0.656738C3.80304 0.656738 3.45392 0.656738 3.16258 0.712155C2.53704 0.83029 1.96162 1.13422 1.51141 1.5843C1.06119 2.03437 0.757082 2.60969 0.638751 3.2352C0.583334 3.52732 0.583334 3.87724 0.583334 4.57549V10.1567C0.583334 13.1421 0.583334 14.6352 1.51117 15.5622C2.43821 16.4901 3.93129 16.4901 6.91667 16.4901H10.0833C13.0687 16.4901 14.5618 16.4901 15.4888 15.5622C16.4167 14.6352 16.4167 13.1421 16.4167 10.1567Z" fill="#C4C4C4"/>
</svg>
